<svg width="48" height="48" viewBox="0 0 48 48" fill="none" xmlns="http://www.w3.org/2000/svg">
<path d="M9.87597 13.5147C7.83597 13.5147 5.76491 14.3101 5.41991 14.7451C5.32991 14.9251 5.1212 16.3799 5.6162 16.3799C5.7812 16.3799 5.85691 16.4086 6.33691 16.1836C8.13691 15.4786 9.27737 15.4951 9.44237 15.4951C11.4674 15.3001 12.637 16.6808 12.457 18.4658V19.5147C10.747 19.1097 9.77003 19.0957 9.29003 19.0957C6.80003 18.9457 4.49999 20.2586 4.49999 23.1446C4.49999 26.3096 7.32491 26.9864 8.41991 26.9414C10.0549 26.9564 11.6154 26.2213 12.6504 24.9463C13.4754 26.7913 14.0006 26.669 14.0156 26.669C14.1656 26.669 14.2853 26.6092 14.4053 26.5342L15.2607 25.9336C15.4107 25.8436 15.5299 25.6947 15.5449 25.5147C15.5299 25.0797 14.7496 24.4047 14.8096 22.8897V18.211C14.8996 16.921 14.4813 15.6586 13.6113 14.6836C12.5763 13.8136 11.211 13.3947 9.87597 13.5147ZM38.9355 13.5147C35.9355 13.5147 34.2118 15.389 34.2568 17.294C34.2568 19.904 36.8953 20.7313 37.1953 20.8213C39.7303 21.6163 40.0762 21.6451 40.7812 22.2451C41.3812 22.8601 41.3059 24.061 40.4209 24.586C40.1659 24.736 39.0697 25.3948 36.5947 24.8848C35.7697 24.7198 35.3361 24.5253 34.6611 24.2403C34.4811 24.1803 34.0605 24.0749 34.0605 24.6299V25.3653C34.0605 25.7103 34.27 26.0238 34.585 26.1738C36.16 26.9688 38.0501 27 38.4551 27C38.5151 27 41.9641 27.0018 43.1191 24.6738C43.3576 24.1938 43.9753 22.4414 42.8203 20.9414C41.8603 19.8164 41.0352 19.6963 38.5752 18.9463C38.3652 18.8863 36.5504 18.4196 36.5654 17.1446C36.4754 15.5096 38.6961 15.4212 39.1611 15.4512C41.0361 15.4212 41.9646 16.124 42.4746 16.169C42.6996 16.169 42.8057 16.0354 42.8057 15.7354V15.044C42.8207 14.879 42.7609 14.7161 42.6709 14.5811C42.0709 13.8011 39.7755 13.5147 38.9355 13.5147ZM16.166 13.8897C16.001 13.9197 15.8811 14.085 15.9111 14.25C15.9411 14.445 15.9709 14.641 16.0459 14.836L19.4062 25.919C19.4812 26.279 19.7191 26.6704 20.2441 26.6104H21.4746C22.2246 26.6854 22.3297 25.9647 22.3447 25.8897L24.5508 16.6494L26.7861 25.9043C26.8011 25.9793 26.9066 26.7 27.6416 26.625H28.8867C29.4267 26.685 29.6818 26.2936 29.7568 25.9336C33.5368 13.7686 33.2805 14.5956 33.3105 14.4756C33.3705 13.8456 33.0102 13.8893 32.9502 13.9043H31.6143C30.9393 13.8293 30.8064 14.4457 30.7764 14.5957L28.2861 24.211L26.0361 14.5957C25.9311 13.8607 25.3307 13.8893 25.1807 13.9043H24.0264C23.3664 13.8443 23.2012 14.3707 23.1562 14.5957L20.9209 24.0762L18.5215 14.5957C18.4615 14.2957 18.2657 13.8297 17.6807 13.8897H16.166ZM9.78515 20.836C10.8651 20.851 11.7974 21.0141 12.4424 21.1641C12.4424 21.9141 12.4697 22.3348 12.3047 23.0098C12.0947 23.7298 11.1666 25.0364 8.97655 25.0664C7.71655 25.1264 6.89179 24.1348 6.96679 23.0098C6.89179 21.2098 8.75015 20.761 9.78515 20.836ZM43.5615 30.0029C42.1615 30.0224 40.5089 30.3361 39.2549 31.2158C38.8679 31.4843 38.9357 31.8571 39.3662 31.8076C40.7762 31.6381 43.9146 31.2576 44.4756 31.9746C45.0381 32.6916 43.8536 35.6497 43.3301 36.9727C43.1681 37.3672 43.5106 37.5305 43.8721 37.2305C46.2181 35.2655 46.8276 31.1462 46.3476 30.5537C46.1069 30.2575 44.9616 29.9834 43.5615 30.0029ZM1.82519 31.5029C1.49809 31.5479 1.35721 31.9625 1.69921 32.291C7.57471 37.802 15.3385 40.5 23.959 40.5C30.1075 40.5 37.2453 38.4939 42.1728 34.7139C42.9873 34.0854 42.2935 33.1436 41.458 33.5156C35.9335 35.9531 29.9332 37.1279 24.4717 37.1279C16.3777 37.1279 8.54212 35.4381 2.20312 31.5996C2.06437 31.5156 1.93422 31.4879 1.82519 31.5029Z" fill="#3C3C3C"/>
</svg>
