<svg width="48" height="48" viewBox="0 0 48 48" fill="none" xmlns="http://www.w3.org/2000/svg">
<g clip-path="url(#clip0)">
<path d="M19.2 8.64001V13.44H9.6V18.24H4.8V23.04H1.08C0.615 23.04 0.2325 23.3625 0.15 23.82C0.1425 23.8538 0 24.6563 0 25.68C0 26.3513 0.06375 27.0825 0.18 27.81C1.27875 27.5475 3.2925 27.1538 2.94 25.86C4.83375 28.0538 9.37875 27.39 10.53 26.31C11.8162 28.1738 19.3087 27.4613 19.83 26.01C21.4425 27.9 26.4412 27.9 28.05 26.01C28.5712 27.4613 36.0337 28.1738 37.32 26.31C37.7287 26.6925 38.58 27.0113 39.57 27.18C39.9037 26.5463 40.2112 25.9088 40.5 25.23C46.5975 25.155 47.9137 20.7713 47.97 20.58C48.075 20.2125 47.9325 19.8338 47.64 19.59C47.5387 19.5038 45.2887 17.6775 41.64 18.3C40.6162 14.9663 37.98 13.4475 37.86 13.38C37.515 13.185 37.0875 13.215 36.78 13.47C36.6825 13.5488 34.4137 15.4725 34.77 19.41C34.86 20.4 35.1187 21.2738 35.52 22.05C34.7325 22.4888 33.3787 23.04 31.2 23.04H30.72V18.24H25.92V8.64001H19.2ZM39.57 27.18C39.4537 27.405 39.3037 27.6225 39.18 27.84H47.85C46.8075 27.5775 44.5687 27.225 44.94 25.86C43.7137 27.2775 41.385 27.4875 39.57 27.18ZM39.18 27.84H0.18C0.4125 29.25 0.8925 30.7275 1.62 32.16C6.8325 33.3863 12.3037 31.5188 12.36 31.5C12.8625 31.3238 13.3875 31.6013 13.56 32.1C13.7362 32.5988 13.4887 33.1575 12.99 33.33C12.8062 33.3938 9.51 34.5 5.46 34.5C4.6575 34.5 3.81375 34.455 2.97 34.35C5.49 37.6913 9.76125 40.32 16.32 40.32C26.6925 40.32 34.6687 35.9138 39.18 27.84ZM0.18 27.84C0.17625 27.825 0.18375 27.825 0.18 27.81C0.11625 27.825 0.05625 27.825 0 27.84H0.18ZM21.12 10.56H24V13.44H21.12V10.56ZM11.52 15.36H14.4V18.24H11.52V15.36ZM16.32 15.36H19.2V18.24H16.32V15.36ZM21.12 15.36H24V18.24H21.12V15.36ZM6.72 20.16H9.6V23.04H6.72V20.16ZM11.52 20.16H14.4V23.04H11.52V20.16ZM16.32 20.16H19.2V23.04H16.32V20.16ZM21.12 20.16H24V23.04H21.12V20.16ZM25.92 20.16H28.8V23.04H25.92V20.16ZM15.36 29.76C15.4837 29.76 15.6112 29.7788 15.72 29.82C15.6037 29.8875 15.51 30.0038 15.51 30.15C15.51 30.3675 15.6825 30.57 15.9 30.57C16.0462 30.57 16.1925 30.48 16.26 30.36C16.3087 30.4725 16.32 30.5888 16.32 30.72C16.32 31.2488 15.8887 31.68 15.36 31.68C14.8312 31.68 14.4 31.2488 14.4 30.72C14.4 30.1913 14.8312 29.76 15.36 29.76Z" fill="#3C3C3C"/>
</g>
<defs>
<clipPath id="clip0">
<rect width="48" height="48" fill="white"/>
</clipPath>
</defs>
</svg>
