<svg width="48" height="48" viewBox="0 0 48 48" fill="none" xmlns="http://www.w3.org/2000/svg">
<g clip-path="url(#clip0)">
<path d="M2.50499 14.0438C2.10635 14.0772 1.75833 14.3977 2.25561 14.9344C3.21081 15.4739 1.31357 15.8709 1.86749 16.2319C2.04413 16.612 1.85334 17.0356 1.33686 17.1038C0.580382 17.169 0.652082 18.2021 1.38936 17.6606C2.21208 17.3995 1.53158 17.7639 1.14374 17.8388C0.273017 18.0922 -0.320308 18.962 0.185612 19.7569C0.669452 20.8513 0.798377 22.0721 1.17374 23.2106C1.79486 24.9617 2.70236 26.6278 3.88124 28.0669C4.44092 28.8829 5.25915 29.4627 6.02811 30.0675C6.78459 30.5581 7.62699 31.0488 8.48811 31.2994C10.0174 31.8591 11.6586 31.9114 13.2656 32.0381C14.2448 32.0362 15.2276 31.9672 16.1944 31.7944C17.0641 31.8885 17.69 31.1449 18.4762 31.5375C18.9524 31.1151 19.6463 31.2991 20.1225 30.9919C20.4748 29.7938 18.9125 30.7544 18.4181 30.1688C17.8805 30.8004 17.4293 30.0995 16.7775 30.2963C15.6677 30.3519 16.8616 29.7991 16.8337 29.2913C16.2453 28.8401 15.5807 29.9108 15.2044 30.1988C14.2751 30.0308 13.355 29.7666 12.5025 29.3644C11.531 28.8585 10.5774 28.2566 9.87374 27.4031C9.13742 26.5314 8.32349 25.65 7.98749 24.5306C7.27709 22.6826 7.3233 20.6817 7.14186 18.7406C7.20906 17.4264 8.59686 18.8821 9.19686 18.4069C8.99142 17.7253 7.89666 17.5095 7.29186 17.2369C6.70818 17.1966 6.49548 16.6735 5.87436 16.6313C5.90412 15.9017 4.7331 16.3031 4.30686 15.7838C4.72638 14.7009 2.91699 15.8095 3.05811 14.8725C3.35283 14.2634 2.90363 14.0103 2.50499 14.0438ZM2.51061 14.1356C2.60523 14.112 2.71406 14.131 2.82374 14.2181C3.34406 14.9189 1.86672 14.1378 2.37936 14.8069C2.0676 14.6607 2.22675 14.2065 2.51061 14.1356ZM40.2375 14.4825C40.1732 14.4825 40.0048 14.5702 39.7331 14.7488C39.3971 14.9657 39.0424 15.1368 38.6719 15.2606C38.4395 15.3403 38.325 15.4513 38.325 15.5944C38.325 15.6933 38.4055 15.7703 38.5687 15.825C38.9153 15.9392 39.1428 16.0968 39.2512 16.2994C39.3309 16.4578 39.3712 16.7389 39.3712 17.145V23.6306C39.3712 24.1989 39.2342 24.5178 38.9625 24.5869C38.6601 24.6656 38.5087 24.782 38.5087 24.9356C38.5087 24.9999 38.5141 25.0511 38.5237 25.0856C38.5477 25.1845 38.709 25.2212 39.0056 25.1963C40.1835 25.1022 41.02 25.079 41.5144 25.1231C41.6728 25.1385 41.7694 25.1313 41.8069 25.1044C41.8443 25.0775 41.8631 25.0067 41.8631 24.8925C41.8631 24.7485 41.7467 24.6616 41.5144 24.6319C41.138 24.5925 40.898 24.5379 40.7944 24.4688C40.6465 24.3699 40.5658 24.1631 40.5562 23.8463C40.5466 23.5295 40.5431 23.2868 40.5431 23.1188C40.5431 22.8816 40.6595 22.698 40.8919 22.5694C41.0992 22.4206 41.2443 22.3463 41.3287 22.3463C41.3979 22.3463 41.4552 22.3875 41.4994 22.4663C42.0437 23.3869 42.7073 24.2672 43.4887 25.1081C43.6068 25.232 43.8057 25.266 44.0831 25.2113C44.6428 25.1671 45.0941 25.1429 45.4406 25.1381C45.6729 25.1285 45.7894 25.0353 45.7894 24.8625C45.7894 24.7243 45.7616 24.6392 45.7069 24.6075C45.6521 24.5758 45.5125 24.5588 45.285 24.5588C44.9787 24.5588 44.6482 24.4083 44.2969 24.1069C43.7477 23.6278 43.1639 22.9167 42.5456 21.9769C42.3776 21.7148 42.2944 21.5491 42.2944 21.48C42.2944 21.4358 42.3131 21.3991 42.3525 21.3694C42.8862 20.8356 43.3896 20.4612 43.86 20.2481C44.1969 20.0897 44.5551 20.0019 44.9362 19.9875C45.1791 19.9731 45.3 19.8818 45.3 19.7138C45.3 19.5352 45.223 19.4429 45.0694 19.4381C44.5999 19.4381 44.1271 19.4354 43.6519 19.4306C42.9693 19.4258 42.4499 19.3999 42.0937 19.35C41.9353 19.325 41.8475 19.4003 41.8331 19.5731C41.8235 19.7459 41.9059 19.8417 42.0787 19.8619C42.4791 19.9166 42.6787 20.0097 42.6787 20.1431C42.6787 20.217 42.6197 20.3174 42.5006 20.4413C41.9016 20.9606 41.3984 21.3797 40.9875 21.7013C40.8339 21.8299 40.7202 21.8944 40.6462 21.8944C40.5771 21.8944 40.5412 21.8299 40.5412 21.7013L40.5281 17.0569C40.5281 16.4482 40.5308 15.9628 40.5356 15.6019C40.5404 15.0777 40.5431 14.8323 40.5431 14.8669C40.5431 14.6096 40.44 14.4825 40.2375 14.4825ZM23.2969 14.535C23.2181 14.535 23.0291 14.6227 22.7325 14.8013C22.3715 15.0288 22.0222 15.1971 21.6862 15.3056C21.4635 15.3795 21.3525 15.4925 21.3525 15.6413C21.3525 15.7401 21.4295 15.8153 21.5831 15.87C21.875 15.9737 22.0782 16.1206 22.1944 16.3088C22.3105 16.4969 22.3706 16.7916 22.3706 17.1919V23.9063C22.3706 24.3114 22.2354 24.5559 21.9656 24.6375C21.6959 24.7191 21.5625 24.8185 21.5625 24.9375C21.5625 25.0709 21.5848 25.1534 21.6319 25.1831C21.6789 25.2119 21.8043 25.2164 22.0069 25.1963C23.0168 25.1118 23.8612 25.1038 24.5437 25.1681C24.7665 25.1921 24.8775 25.1053 24.8775 24.9075C24.8775 24.7645 24.7674 24.6803 24.5437 24.6563C24.1828 24.6121 23.9275 24.5207 23.7787 24.3844C23.6299 24.2481 23.5556 24.0296 23.5556 23.7281L23.5275 17.1019C23.5217 16.6276 23.5262 16.144 23.5406 15.6544C23.5608 15.1398 23.5706 14.8917 23.5706 14.9119C23.5706 14.6594 23.4802 14.535 23.2969 14.535ZM13.4287 15.315C13.374 15.3246 13.3356 15.3765 13.3106 15.4706C13.2617 15.6242 13.336 15.7451 13.5337 15.8344C13.8496 15.9784 14.0663 16.1387 14.1825 16.3144C14.2986 16.4901 14.3569 16.7417 14.3569 17.0681V23.4206C14.3569 24.2174 14.1142 24.6428 13.6294 24.6975C13.4172 24.7177 13.3106 24.7901 13.3106 24.9188C13.3106 25.1223 13.4162 25.2091 13.6294 25.1794C14.3906 25.0757 15.3578 25.0722 16.53 25.1663C16.9351 25.2008 17.1527 25.1363 17.1825 24.9731C17.2122 24.7859 17.1057 24.6793 16.8637 24.6544C16.3895 24.5949 16.0805 24.5277 15.9375 24.4538C15.7541 24.3645 15.6619 24.1952 15.6619 23.9475V20.61C15.6619 20.5466 15.7057 20.5125 15.795 20.5125C16.5812 20.5125 17.1509 20.534 17.4994 20.5763C17.8478 20.6185 18.087 20.9499 18.2156 21.5681C18.2511 21.7313 18.3361 21.8038 18.4744 21.7894C18.6424 21.7798 18.7248 21.7118 18.72 21.5831C18.6701 20.505 18.7149 19.6292 18.8531 18.9563C18.8781 18.8372 18.8055 18.7602 18.6375 18.7256C18.4397 18.6815 18.3252 18.7585 18.2906 18.9563C18.2359 19.3182 18.1804 19.5411 18.1237 19.6275C18.0671 19.7139 17.9551 19.7667 17.7919 19.7869C16.9557 19.8416 16.3181 19.8721 15.8775 19.8769C15.7344 19.8817 15.6637 19.828 15.6637 19.7138V16.3519C15.6637 16.2376 15.6869 16.1633 15.7369 16.1288C15.8165 16.074 15.9858 16.0481 16.2431 16.0481C17.3663 16.0481 18.0665 16.0696 18.3487 16.1138C18.6108 16.1483 18.8222 16.2514 18.9806 16.4194C19.115 16.5624 19.2556 16.814 19.4044 17.175C19.4581 17.3084 19.5549 17.3756 19.6931 17.3756C19.8314 17.3756 19.8994 17.2986 19.8994 17.145C19.9186 16.3636 19.9705 15.8075 20.055 15.4763C20.0598 15.4561 20.0624 15.4375 20.0644 15.4125C20.0644 15.3386 19.8987 15.3098 19.5675 15.33C18.5729 15.3895 17.3926 15.42 16.0275 15.42C14.8697 15.42 14.1345 15.3949 13.8225 15.345C13.6094 15.3104 13.4787 15.3006 13.4287 15.315ZM3.63936 15.4913C3.77184 15.5193 3.81758 15.5984 3.45374 15.6469L3.30749 15.6394C3.28829 15.4863 3.50688 15.4632 3.63936 15.4913ZM3.49311 16.0031C3.75615 16.1183 4.29542 16.1717 4.38374 16.4606C3.84518 16.1803 4.4909 16.7984 4.03874 16.7869C3.7949 16.7898 3.34335 16.2662 3.49311 16.0031ZM3.35811 16.4381C3.96771 16.9018 3.01841 16.4379 2.63249 16.7288C2.02481 16.7902 3.29859 16.3863 3.35811 16.4381ZM4.96874 16.7156C5.04653 16.7371 5.04651 16.8107 4.91811 16.965C5.39043 17.5295 5.02409 17.3391 4.70249 16.9388C4.98473 17.1336 4.76703 17.9751 4.33311 17.3963C4.02591 16.8241 3.83142 17.2108 4.15686 17.6025C3.83718 17.0006 2.91179 17.2577 2.23499 17.4881C1.79819 17.4401 3.37007 17.1149 3.53999 17.0381C3.80279 17.0432 4.73537 16.6512 4.96874 16.7156ZM6.86249 17.3531C7.05555 17.3506 7.24596 17.3579 7.43436 17.3738C7.73676 17.7261 7.20545 18.3225 6.65249 18.3619C5.98049 18.6134 5.29649 18.6749 4.67249 18.7575C3.87185 18.6567 3.29693 19.3769 2.46749 19.4681C2.68829 19.0592 2.28609 19.327 1.86561 19.3069C2.07969 20.1325 0.384332 19.0875 1.38561 18.8888C0.634892 18.6219 0.624392 19.4107 0.703112 19.86H0.652487C-0.034873 18.9749 0.729602 18.6139 1.59936 18.5006C1.43424 18.9086 1.83686 19.0398 2.22374 19.1138C2.85062 18.941 1.81137 18.8298 2.28561 18.6656C2.54577 18.6176 1.4562 18.405 2.36436 18.2831C3.29556 18.1266 4.13334 17.7608 5.05686 17.5688C5.68182 17.4449 6.28329 17.3606 6.86249 17.3531ZM6.65624 17.5631C6.57404 17.5376 6.38291 17.589 6.28499 17.8463C6.35603 18.0085 6.39126 17.7988 6.37686 17.7431C6.71238 17.6918 6.73844 17.5887 6.65624 17.5631ZM4.71936 17.9081C4.45068 17.8958 4.01051 17.9539 3.85499 18.1406C4.05275 18.2309 4.2702 17.8909 4.55436 18.105C5.08476 18.0042 4.98804 17.9205 4.71936 17.9081ZM8.55561 17.9569C8.68991 17.9349 9.10574 18.0902 8.95874 18.3506C8.85794 18.3794 8.87516 18.2275 8.80124 18.2025C8.49668 18.0473 8.47503 17.97 8.55561 17.9569ZM3.34686 18.3169C3.27665 18.3168 3.22046 18.3486 3.21374 18.435L3.34874 18.5588C3.88802 18.6027 3.55751 18.3171 3.34686 18.3169ZM3.04499 18.5644C2.94488 18.5498 2.85212 18.6052 2.80124 18.7931C2.89532 18.7701 3.04475 18.8243 3.13499 18.8925C3.70379 19.2813 3.34532 18.6083 3.04499 18.5644ZM6.70311 18.6563C7.20233 18.5585 7.05668 19.8508 6.89624 20.2481C7.19864 20.0417 7.14041 21.2073 7.04249 21.6413C7.20761 21.4195 7.27556 22.0001 7.09124 22.41C7.1066 22.3428 7.49069 22.2842 7.20749 22.77C6.99149 22.2938 6.89766 23.7386 7.03686 23.0906C7.41798 22.4781 7.3182 23.058 7.43436 23.3288C7.50924 23.8904 7.75977 24.4083 7.83561 24.9056C8.18793 25.2608 7.68557 25.02 7.68749 25.5C7.80173 25.3608 8.26787 25.6955 8.26499 26.1938C8.30339 25.4037 8.34878 26.0089 8.73374 26.2144C9.05534 26.7328 9.29624 27.2178 9.77624 27.645C10.1506 28.078 9.75275 27.7738 9.91499 28.0388C10.3124 28.7434 11.2332 29.1519 12.03 29.3363C12.3794 29.7913 12.904 30.2439 13.6144 30.0375C13.0134 30.4081 15.3069 30.5088 14.5312 30.7181C14.128 30.937 13.7455 30.5771 13.3519 30.5963C12.8047 30.4081 11.9397 29.8314 11.3531 30.2231C10.5419 30.731 11.7688 29.6569 11.1112 30.1369C10.445 30.9366 10.6587 29.6393 10.0087 30.0281C9.9713 29.9043 9.43103 29.8701 9.83999 29.6513C9.47327 29.6282 9.70188 29.6047 9.83436 29.3119C9.67692 29.2792 8.80179 29.3102 8.45811 29.0231C8.05299 28.4961 8.52884 28.7101 8.95124 28.7869C8.27348 28.9059 9.18437 29.2954 9.63749 29.0794C9.43397 28.993 9.20105 28.5531 8.66249 28.1681C7.90985 27.715 7.29047 27.4988 6.50999 27.1369C5.66519 26.6358 6.69906 26.9591 6.99186 27.2231C7.83474 27.5946 7.503 26.7017 7.01436 26.4694C6.47868 26.4915 6.34098 25.8761 5.91186 25.9106C6.58962 26.0191 7.06017 25.7354 6.30561 25.0538C5.58849 24.2166 6.60509 25.6854 6.18749 25.4963C5.99741 25.2457 6.13983 24.8852 5.53311 24.7556C5.52639 24.987 5.44997 25.3455 5.31749 24.8588C5.14853 24.8876 4.9551 25.073 4.81686 24.5719C4.94742 24.0026 4.25313 23.8726 4.14561 23.5088C4.74561 23.8918 5.01714 23.5898 4.59186 23.1713C4.29906 22.6596 4.25819 23.0608 4.09499 23.1319C3.50651 23.7328 4.04111 22.0952 3.77999 22.5675C3.51695 22.5598 3.66831 22.857 3.67311 23.2256C2.81295 23.0125 3.88197 23.6783 4.13061 24.045C3.73797 23.6341 3.80456 24.353 3.47624 24.0113C3.36488 23.7089 3.34935 23.2314 2.80311 23.1469C3.42423 22.9318 2.43368 22.4949 2.51624 22.4719C2.87144 22.1484 2.91683 21.7037 3.34499 22.3988C2.80259 22.3546 3.32967 23.2941 3.46311 23.0138C3.44199 22.5328 3.68483 22.028 2.86499 21.8063C2.62403 22.1307 2.20869 21.1706 2.69061 21.3731C2.62725 20.7357 3.43808 21.1115 3.38624 20.835C3.8048 20.6516 2.87954 20.0596 3.37874 19.8225C3.76082 20.0548 4.75185 19.4569 4.08561 19.3744C4.50225 19.3705 4.83645 19.553 4.88061 19.1306C5.21757 19.2036 6.12909 19.4938 5.30061 19.0369C5.56557 18.9054 6.12555 18.7942 6.44811 18.7894C6.54759 18.712 6.63179 18.6702 6.70311 18.6563ZM35.1562 19.1925C34.5188 19.1925 34.0092 19.3348 33.6281 19.6219C33.2172 19.9195 33.0131 20.334 33.0131 20.8688C33.0131 21.3036 33.1448 21.6502 33.4069 21.9075C33.6488 22.1494 34.1306 22.4315 34.8525 22.7531C35.3517 22.971 35.6884 23.1618 35.8612 23.325C36.0196 23.469 36.0994 23.6463 36.0994 23.8594C36.0994 24.3442 35.751 24.5869 35.0531 24.5869C34.2266 24.5869 33.6274 24.2636 33.2569 23.6156C33.1724 23.4726 33.0703 23.4081 32.9512 23.4225C32.8322 23.4321 32.7731 23.5673 32.7731 23.8294C32.7731 24.438 32.7938 24.7784 32.8331 24.8475C32.8974 24.9214 33.1303 25.002 33.5306 25.0913C33.9953 25.1901 34.461 25.2413 34.9256 25.2413C35.6235 25.2413 36.1743 25.0854 36.5775 24.7763C36.9807 24.4671 37.1812 24.0517 37.1812 23.5275C37.1812 23.0533 37.0335 22.6745 36.7387 22.3894C36.5112 22.1724 36.0805 21.9261 35.4469 21.6544C34.843 21.3923 34.4607 21.1988 34.2975 21.075C34.1141 20.931 34.0219 20.7404 34.0219 20.4975C34.0219 20.0626 34.3604 19.845 35.0381 19.845C35.6372 19.845 36.1324 20.1629 36.5231 20.8013C36.5778 20.8905 36.6862 20.9183 36.8494 20.8838C37.002 20.8444 37.0719 20.7924 37.0575 20.7281C36.9336 20.204 36.8512 19.8037 36.8119 19.5263C36.7965 19.4322 36.6111 19.3524 36.255 19.2881C35.9238 19.2248 35.5566 19.1925 35.1562 19.1925ZM28.98 19.2225C28.3963 19.2225 27.7892 19.3901 27.1556 19.7213C26.5518 20.0381 26.25 20.3148 26.25 20.5519C26.25 20.932 26.4533 21.1031 26.8594 21.0638C27.2155 21.034 27.4887 20.828 27.6787 20.4469C27.8688 20.0658 28.0712 19.875 28.2844 19.875C29.0312 19.875 29.3885 20.2826 29.3587 21.0938L29.3456 21.5681C29.3408 21.7755 29.1697 21.9126 28.8337 21.9769C26.8744 22.3484 25.8956 22.9609 25.8956 23.8163C25.8956 24.2665 26.0433 24.6229 26.34 24.885C26.6117 25.1221 26.9502 25.2413 27.3562 25.2413C27.7863 25.2413 28.2153 25.1401 28.6406 24.9375C29.0659 24.7349 29.3015 24.6319 29.3456 24.6319C29.4051 24.6319 29.5081 24.7268 29.6569 24.915C29.8047 25.1032 29.9758 25.1963 30.1687 25.1963C30.3963 25.1963 30.6999 25.0915 31.0781 24.8813C31.4564 24.671 31.6462 24.5143 31.6462 24.4106C31.6462 24.2177 31.5737 24.121 31.4287 24.12C31.4038 24.12 31.3161 24.1325 31.1625 24.1575C31.0089 24.1825 30.906 24.195 30.8512 24.195C30.5748 24.195 30.4377 24.0347 30.4425 23.7131L30.4725 20.655C30.4821 19.6998 29.9841 19.2225 28.98 19.2225ZM6.64874 19.4494C6.52251 19.4856 6.32516 20.1565 6.46124 20.3963C6.76076 20.8734 7.06046 19.2236 6.81374 19.7775C6.68126 20.4831 6.54582 20.1882 6.73686 19.6631C6.72534 19.4944 6.69081 19.4373 6.64874 19.4494ZM2.43374 20.0738C2.48145 20.0716 2.56524 20.0754 2.69436 20.0888C3.3606 20.0657 3.14669 20.4585 2.76749 20.4844C2.75885 20.5093 2.42012 20.4031 2.56124 20.31C3.47516 20.4259 2.09973 20.0888 2.43374 20.0738ZM4.11186 20.3063C4.16742 20.4308 4.26165 20.6652 4.19061 20.7694C4.37781 20.9547 5.01734 21.2844 4.50374 20.8313C4.8311 20.766 4.46049 20.6624 4.26561 20.5069C4.03953 20.1675 4.0563 20.1817 4.11186 20.3063ZM1.93874 20.3231C2.08994 20.3172 2.24514 20.3949 1.95186 20.5744C1.64034 20.4184 1.78754 20.329 1.93874 20.3231ZM6.20061 20.76C6.19091 20.7462 6.18582 20.7584 6.19686 20.8256C6.3099 21.0791 6.22973 20.8014 6.20061 20.76ZM3.92999 21.0131C4.01831 21.1408 4.25738 21.0843 4.36874 21.2081C5.37482 21.6248 4.27847 20.9382 3.92999 21.0131ZM3.77249 21.0919C3.72299 21.1031 3.73188 21.1689 3.84186 21.3206C3.91098 21.4771 4.07766 21.4904 4.21686 21.5269C5.29638 22.0245 3.98697 21.0431 3.77249 21.0919ZM1.91436 21.1763C2.0784 21.203 2.2757 21.2914 2.05874 21.3769L1.97061 21.3431C1.61973 21.1833 1.75032 21.1495 1.91436 21.1763ZM3.44061 21.3075C3.39146 21.3101 3.43362 21.3838 3.66186 21.5869L3.80999 21.7388C4.55879 21.944 3.58808 21.2998 3.44061 21.3075ZM3.33936 21.5081C3.30071 21.5069 3.64805 21.8784 3.48749 21.8719C2.93165 21.4658 3.15857 21.753 3.47249 22.065C3.81329 22.5709 4.09487 21.7636 3.53999 21.6619C3.40799 21.551 3.35225 21.5085 3.33936 21.5081ZM5.69811 22.0369C5.69105 22.0601 5.68982 22.1384 5.70374 22.3088C5.79662 22.393 5.71931 21.9674 5.69811 22.0369ZM6.18936 22.08C6.06962 22.0807 5.97969 22.9297 6.27561 23.1075C6.39753 23.4579 6.5277 23.3137 6.57186 22.9163C6.28578 22.922 6.68961 22.2937 6.30561 22.4175C6.27201 22.1729 6.22928 22.0798 6.18936 22.08ZM7.01624 22.0988C6.99476 22.0511 6.94308 22.1553 6.92436 22.5038V22.6031C7.02804 22.3454 7.03772 22.1464 7.01624 22.0988ZM1.40999 22.1269C1.48586 22.1086 1.91831 22.9844 1.85999 23.2256C1.59503 23.1335 1.60787 22.7189 1.48499 22.5C1.39979 22.2386 1.3847 22.133 1.40999 22.1269ZM4.56936 22.17C4.49928 22.3649 4.71813 23.004 4.85061 23.2219C5.18853 23.7412 5.03693 22.9379 5.40749 23.4563C5.20397 23.0012 5.50319 23.2489 5.45999 23.055C5.36591 22.8592 4.45464 21.8226 4.86936 22.605C5.24472 23.5381 4.63368 22.4878 4.56936 22.17ZM1.23186 22.3219C1.33331 22.3873 1.60521 22.8296 1.65561 23.0756C2.08281 23.5902 1.9143 23.8737 2.35686 24.5044C1.78758 24.1453 1.68003 23.2883 1.31811 22.7344C1.17015 22.3791 1.17099 22.2826 1.23186 22.3219ZM29.1562 22.4381C29.2051 22.4418 29.2436 22.4541 29.2744 22.4738C29.3368 22.5131 29.3654 22.5937 29.3606 22.7175L29.3456 23.9363C29.3456 24.0899 29.1925 24.2215 28.8862 24.33C28.6242 24.4241 28.3689 24.4706 28.1212 24.4706C27.503 24.4706 27.1931 24.1868 27.1931 23.6175C27.1931 23.053 27.7895 22.6644 28.9819 22.4513C29.0486 22.4388 29.1074 22.4344 29.1562 22.4381ZM4.37436 23.9344C4.60337 24.0062 4.46496 24.7552 4.80936 24.8569C5.57832 25.8601 4.27674 24.8863 3.84186 24.7894C3.89754 24.7865 3.45582 24.6638 3.64686 24.6206C3.50766 24.4776 3.19613 23.9581 3.90749 24.3056C4.47293 24.5888 4.52037 24.3977 4.25061 23.9475C4.30077 23.9263 4.34165 23.9241 4.37436 23.9344ZM1.77936 24.0806C1.7984 23.9849 2.18996 24.6147 2.26124 24.8775C2.47628 25.562 3.14933 25.9563 3.21749 26.4094C3.96341 26.8395 3.58061 27.541 4.20749 27.7388C4.48589 27.5976 4.51329 28.5836 5.10561 28.3781C4.77633 28.5327 5.24424 28.7155 5.40936 29.0025C5.7828 28.9516 6.60128 29.8252 5.78624 29.5238C5.44256 29.4508 5.20787 29.0933 4.96499 28.86C4.24403 28.4021 3.77613 27.6359 3.38061 26.9025C2.87085 26.1316 2.25722 25.3608 1.90874 24.4594C1.8065 24.2254 1.77302 24.1125 1.77936 24.0806ZM7.50749 24.66C7.46948 24.6795 7.4675 24.7934 7.57874 25.0425L7.64436 25.1494C7.73496 24.8548 7.57082 24.6276 7.50749 24.66ZM4.91436 25.5413C5.12652 25.5875 5.44572 25.7014 5.57436 25.7269C5.60988 25.8795 4.84716 25.8558 5.51436 26.1544C5.12556 26.1438 5.00823 26.1145 5.56311 26.4544C5.34519 26.6291 6.00246 26.7679 5.77686 27.03C6.44598 27.5522 5.65607 27.1625 5.36999 26.9494C5.20103 26.8323 4.51247 26.5995 4.61999 26.4469C5.43215 26.8731 4.82619 26.4282 4.46811 26.145C5.12283 26.3053 3.94349 25.6601 4.56749 25.83C4.75277 25.8751 4.28693 25.4477 4.89749 25.7588C4.59701 25.5159 4.7022 25.4951 4.91436 25.5413ZM8.98686 27.1781C8.90321 27.1486 8.98601 27.4724 9.17249 27.6675C9.56993 28.1408 9.2676 27.3988 9.12936 27.3431C9.06216 27.2373 9.01475 27.188 8.98686 27.1781ZM5.48061 27.6431C5.70189 27.6455 6.06366 27.7453 6.28686 27.8644C7.26606 28.0823 6.07854 28.3449 5.68686 28.0444L5.52186 28.0088C5.17962 27.7371 5.25933 27.6407 5.48061 27.6431ZM6.65061 27.7463C6.73205 27.7289 7.10219 27.8811 7.25999 28.0275C7.72943 28.0909 7.73151 28.3053 7.21311 28.1719C7.12095 28.1152 6.97236 28.1184 6.92436 27.9994C6.65724 27.8287 6.60175 27.7567 6.65061 27.7463ZM7.27499 27.7538C7.42307 27.7512 7.66554 27.7933 7.74186 27.9056C8.77002 28.0707 7.67681 28.1426 7.37249 27.8719C7.07345 27.8032 7.12691 27.7563 7.27499 27.7538ZM7.27499 28.3331C7.38614 28.3086 8.11199 28.6082 7.58999 28.5413L7.43811 28.4925C7.26939 28.3867 7.23794 28.3413 7.27499 28.3331ZM10.7344 28.5075C10.7668 28.5189 10.7997 28.5486 10.8225 28.6069C10.5525 28.6026 10.6372 28.4733 10.7344 28.5075ZM7.27874 28.7888C7.48965 28.8091 8.30105 29.2524 7.58249 29.0494L7.47186 29.0063L7.34624 28.9481C7.20392 28.8216 7.20843 28.782 7.27874 28.7888ZM9.02436 29.9569C9.12183 29.9414 9.92226 30.014 9.24186 30.0075C9.03714 29.9763 8.99187 29.9621 9.02436 29.9569ZM6.89624 30.075C6.95387 30.0879 7.0452 30.116 7.17936 30.165C8.03856 30.6959 9.0291 30.9767 9.94686 31.3856C10.7533 31.4912 11.6036 31.7046 12.3975 31.5338C13.0599 31.865 13.7469 31.448 14.4112 31.7475C12.9434 32.0336 11.4333 31.7204 9.97124 31.5169C9.04964 31.4007 8.22657 31.0182 7.38561 30.6544C7.26369 30.5968 7.14836 30.5247 7.03124 30.4575C6.45332 30.1369 6.52493 30.0714 7.08749 30.3863C7.28621 30.5447 8.69603 31.1217 8.02499 30.7406C7.77131 30.6776 6.49283 29.9848 6.89624 30.075ZM12.24 30.33C12.3057 30.3722 12.308 30.5101 12.3056 30.6844C11.864 31.1721 12.1273 30.485 11.8537 30.75C11.6013 30.9516 11.6612 30.6299 11.7975 30.5531C12.0447 30.3414 12.1742 30.2878 12.24 30.33ZM15.9206 30.4856C16.3148 30.5196 16.7657 30.6106 17.0269 30.6169C16.8685 30.95 15.8894 30.6439 15.4594 30.7313L15.2737 30.72L15.1594 30.7013C15.1896 30.4747 15.5264 30.4517 15.9206 30.4856ZM19.3106 30.5925C20.3301 30.5915 19.3778 30.7407 18.9094 30.7388C18.3775 30.614 19.1503 30.6175 19.3106 30.5925ZM13.17 30.7256C13.2516 30.7164 13.2795 30.7807 13.0481 30.93L12.9637 30.9563C12.9522 30.8161 13.0884 30.7349 13.17 30.7256ZM12.7819 30.7856C12.7969 30.8088 12.7633 30.8752 12.6337 31.0125C12.2565 31.037 12.7369 30.7161 12.7819 30.7856ZM9.10311 30.8906C9.19518 30.8675 10.1869 31.1535 10.3144 31.1269C11.3252 31.5022 9.71094 31.249 9.37686 31.0388C9.14238 30.9396 9.07242 30.8983 9.10311 30.8906ZM13.9875 30.9394C13.9897 30.9646 13.9371 31.0236 13.7887 31.1306L13.665 31.2113C13.4893 31.0896 13.9809 30.8638 13.9875 30.9394Z" fill="#3C3C3C"/>
</g>
<defs>
<clipPath id="clip0">
<rect width="48" height="48" fill="white"/>
</clipPath>
</defs>
</svg>
