<svg width="48" height="48" viewBox="0 0 48 48" fill="none" xmlns="http://www.w3.org/2000/svg">
<path d="M7.5 7.5V40.5H40.5V7.5H7.5ZM10.5 10.5H37.5V37.5H10.5V10.5ZM30.3662 22.5C28.2287 22.5 26.8477 23.8682 26.8477 25.6787C26.8477 27.6452 28.0008 28.5852 29.7393 29.3262L30.3398 29.584C31.4378 30.0685 32.0918 30.3512 32.0918 31.1777C32.0918 31.8752 31.4516 32.376 30.4541 32.376C29.2721 32.376 28.5999 31.7497 28.0869 30.9082L26.1211 32.0332C26.8186 33.4297 28.2718 34.5 30.5098 34.5C32.7898 34.5 34.5 33.3174 34.5 31.1514C34.5 29.1279 33.3455 28.2289 31.292 27.3604L30.6943 27.1025C29.6548 26.6465 29.2119 26.3473 29.2119 25.6348C29.2119 25.0498 29.6537 24.5947 30.3662 24.5947C31.0652 24.5947 31.5049 24.8938 31.9189 25.6348L33.8027 24.4248C33.0047 23.0283 31.9052 22.5 30.3662 22.5ZM21.5918 22.6436V30.8379C21.5918 32.0349 21.0784 32.3467 20.2939 32.3467C19.4674 32.3467 19.1117 31.7779 18.7412 31.1074L16.7754 32.291C17.3454 33.503 18.4691 34.5 20.3936 34.5C22.5311 34.5 24 33.3588 24 30.8643V22.6436H21.5918Z" fill="#3C3C3C"/>
</svg>
