<svg width="48" height="48" viewBox="0 0 48 48" fill="none" xmlns="http://www.w3.org/2000/svg">
<path d="M24 1.91998C20.1038 1.91998 17.46 2.84998 15.78 4.19998C14.1 5.54998 13.44 7.28623 13.44 8.72998V13.44H23.04V14.4H8.73004C6.97504 14.4 5.19379 15.1612 3.93004 16.77C2.66629 18.3787 1.92004 20.7787 1.92004 24C1.92004 27.2212 2.66629 29.6212 3.93004 31.23C5.19379 32.8387 6.97504 33.6 8.73004 33.6H13.44V39.27C13.44 40.7137 14.1 42.45 15.78 43.8C17.46 45.15 20.1038 46.08 24 46.08C27.8963 46.08 30.54 45.15 32.22 43.8C33.9 42.45 34.56 40.7137 34.56 39.27V34.56H24.96V33.6H39.27C41.025 33.6 42.8063 32.8387 44.07 31.23C45.3338 29.6212 46.08 27.2212 46.08 24C46.08 20.7787 45.3338 18.3787 44.07 16.77C42.8063 15.1612 41.025 14.4 39.27 14.4H34.56V8.72998C34.56 7.24873 33.9038 5.50873 32.22 4.16998C30.5363 2.83123 27.8925 1.91998 24 1.91998ZM24 3.83998C27.5963 3.83998 29.775 4.67998 31.02 5.66998C32.265 6.65998 32.64 7.81123 32.64 8.72998V20.16C32.64 21.75 31.35 23.04 29.76 23.04H18.24C16.2638 23.04 14.5613 24.2587 13.83 25.98C13.7063 26.265 13.5938 26.5687 13.53 26.88C13.4663 27.1912 13.44 27.51 13.44 27.84V31.68H8.73004C7.51129 31.68 6.38254 31.2037 5.46004 30.03C4.53754 28.8562 3.84004 26.9212 3.84004 24C3.84004 21.0787 4.53754 19.1437 5.46004 17.97C6.38254 16.7962 7.51129 16.32 8.73004 16.32H24.96V11.52H15.36V8.72998C15.36 7.87123 15.7313 6.70123 16.98 5.69998C18.2288 4.69873 20.4075 3.83998 24 3.83998ZM19.2 6.71998C18.1425 6.71998 17.28 7.58248 17.28 8.63998C17.28 9.69748 18.1425 10.56 19.2 10.56C20.2575 10.56 21.12 9.69748 21.12 8.63998C21.12 7.58248 20.2575 6.71998 19.2 6.71998ZM34.56 16.32H39.27C40.4888 16.32 41.6175 16.7962 42.54 17.97C43.4625 19.1437 44.16 21.0787 44.16 24C44.16 26.9212 43.4625 28.8562 42.54 30.03C41.6175 31.2037 40.4888 31.68 39.27 31.68H23.04V36.48H32.64V39.27C32.64 40.1287 32.2688 41.2987 31.02 42.3C29.7713 43.3012 27.5925 44.16 24 44.16C20.4075 44.16 18.2288 43.3012 16.98 42.3C15.7313 41.2987 15.36 40.1287 15.36 39.27V27.84C15.36 27.6412 15.3825 27.4575 15.42 27.27C15.69 25.9575 16.8488 24.96 18.24 24.96H29.76C32.3963 24.96 34.56 22.7962 34.56 20.16V16.32ZM28.8 37.44C27.7425 37.44 26.88 38.3025 26.88 39.36C26.88 40.4175 27.7425 41.28 28.8 41.28C29.8575 41.28 30.72 40.4175 30.72 39.36C30.72 38.3025 29.8575 37.44 28.8 37.44Z" fill="#3C3C3C"/>
</svg>
