<svg width="48" height="48" viewBox="0 0 48 48" fill="none" xmlns="http://www.w3.org/2000/svg">
<g clip-path="url(#clip0)">
<path d="M41.314 26.71C39.638 26.718 38.186 27.122 36.968 27.722C36.522 26.834 36.072 26.052 35.996 25.47C35.908 24.792 35.806 24.386 35.912 23.578C36.018 22.77 36.486 21.626 36.48 21.54C36.474 21.454 36.376 21.042 35.408 21.036C34.44 21.03 33.614 21.222 33.516 21.478C33.418 21.734 33.232 22.308 33.116 22.908C32.946 23.784 31.186 26.912 30.186 28.548C29.858 27.91 29.58 27.346 29.522 26.902C29.434 26.224 29.332 25.818 29.438 25.01C29.544 24.202 30.012 23.058 30.006 22.972C30 22.886 29.902 22.474 28.934 22.468C27.966 22.462 27.14 22.654 27.042 22.91C26.944 23.166 26.84 23.762 26.642 24.34C26.444 24.918 24.102 30.134 23.49 31.486C23.178 32.174 22.906 32.728 22.714 33.106L22.712 33.104C22.712 33.104 22.7 33.13 22.68 33.172C22.516 33.494 22.418 33.672 22.418 33.672C22.418 33.672 22.42 33.674 22.42 33.678C22.29 33.914 22.15 34.134 22.08 34.134C22.032 34.134 21.934 33.506 22.102 32.642C22.45 30.832 23.288 28.01 23.278 27.914C23.274 27.864 23.434 27.372 22.732 27.116C22.05 26.866 21.806 27.282 21.744 27.284C21.684 27.286 21.638 27.432 21.638 27.432C21.638 27.432 22.398 24.258 20.188 24.258C18.806 24.258 16.892 25.77 15.948 27.14C15.352 27.464 14.078 28.16 12.728 28.902C12.208 29.188 11.68 29.478 11.176 29.756C11.142 29.718 11.108 29.68 11.072 29.642C8.392 26.782 3.436 24.76 3.646 20.916C3.722 19.518 4.208 15.838 13.166 11.374C20.504 7.71802 26.38 8.72402 27.394 10.954C28.844 14.14 24.254 20.062 16.634 20.916C13.73 21.242 12.202 20.116 11.822 19.698C11.422 19.256 11.362 19.236 11.212 19.32C10.968 19.454 11.122 19.844 11.212 20.076C11.44 20.668 12.374 21.718 13.966 22.24C15.366 22.7 18.776 22.952 22.898 21.358C27.516 19.572 31.122 14.604 30.062 10.45C28.984 6.22602 21.982 4.83802 15.352 7.19202C11.412 8.58602 7.142 10.786 4.072 13.658C0.422003 17.072 -0.161997 20.046 0.0780027 21.288C0.930003 25.7 7.012 28.574 9.448 30.704C9.328 30.77 9.216 30.832 9.112 30.89C7.89 31.494 3.254 33.92 2.094 36.484C0.778003 39.392 2.304 41.478 3.312 41.76C6.44 42.63 9.65 41.064 11.374 38.492C13.098 35.92 12.888 32.57 12.096 31.042C12.086 31.024 12.076 31.004 12.066 30.986C12.382 30.8 12.702 30.61 13.022 30.422C13.644 30.058 14.254 29.716 14.782 29.428C14.486 30.24 14.268 31.212 14.156 32.618C14.026 34.266 14.704 36.4 15.588 37.24C15.978 37.61 16.446 37.618 16.744 37.618C17.774 37.618 18.244 36.762 18.762 35.748C19.396 34.504 19.96 33.058 19.96 33.058C19.96 33.058 19.254 36.968 21.18 36.968C21.882 36.968 22.588 36.058 22.902 35.594C22.902 35.6 22.904 35.602 22.904 35.602C22.904 35.602 22.922 35.572 22.958 35.512C23.03 35.4 23.072 35.33 23.072 35.33C23.072 35.33 23.074 35.322 23.076 35.31C23.358 34.82 23.984 33.704 24.922 31.862C26.134 29.482 27.296 26.502 27.296 26.502C27.296 26.502 27.404 27.23 27.758 28.436C27.966 29.144 28.41 29.928 28.758 30.68C28.476 31.07 28.304 31.294 28.304 31.294C28.304 31.294 28.306 31.298 28.308 31.306C28.084 31.604 27.832 31.926 27.568 32.24C26.612 33.38 25.472 34.68 25.32 35.056C25.14 35.498 25.182 35.824 25.53 36.086C25.784 36.278 26.236 36.306 26.708 36.276C27.568 36.218 28.172 36.004 28.472 35.876C28.938 35.712 29.48 35.452 29.988 35.078C30.926 34.388 31.492 33.4 31.438 32.094C31.408 31.374 31.178 30.66 30.888 29.986C30.974 29.864 31.058 29.74 31.144 29.614C32.624 27.452 33.772 25.074 33.772 25.074C33.772 25.074 33.88 25.802 34.234 27.008C34.414 27.618 34.766 28.284 35.086 28.936C33.694 30.066 32.832 31.38 32.532 32.242C31.978 33.836 32.412 34.558 33.226 34.722C33.594 34.796 34.116 34.628 34.506 34.462C34.994 34.3 35.578 34.032 36.126 33.63C37.064 32.94 37.966 31.974 37.912 30.666C37.888 30.07 37.726 29.48 37.506 28.912C38.686 28.42 40.212 28.148 42.156 28.374C46.328 28.862 47.146 31.466 46.99 32.556C46.834 33.646 45.958 34.246 45.666 34.426C45.374 34.606 45.284 34.67 45.308 34.804C45.344 35 45.478 34.992 45.728 34.95C46.072 34.892 47.918 34.064 47.998 32.05C48.098 29.492 45.65 26.686 41.314 26.71ZM9.156 37.55C7.774 39.058 5.844 39.628 5.016 39.148C4.122 38.63 4.476 36.41 6.172 34.81C7.206 33.836 8.54 32.938 9.426 32.384C9.628 32.262 9.924 32.084 10.284 31.87C10.344 31.836 10.378 31.818 10.378 31.818L10.376 31.816C10.446 31.774 10.516 31.732 10.59 31.688C11.206 33.964 10.606 35.968 9.156 37.55ZM19.224 30.706C18.742 31.88 17.736 34.882 17.122 34.72C16.596 34.582 16.276 32.3 17.016 30.054C17.39 28.924 18.186 27.572 18.656 27.048C19.41 26.204 20.24 25.928 20.442 26.27C20.7 26.708 19.526 29.972 19.224 30.706ZM27.54 34.676C27.336 34.782 27.148 34.85 27.062 34.798C26.998 34.76 27.146 34.62 27.146 34.62C27.146 34.62 28.186 33.5 28.596 32.992C28.834 32.696 29.11 32.344 29.412 31.95C29.414 31.99 29.416 32.028 29.416 32.066C29.414 33.406 28.118 34.312 27.54 34.676ZM33.948 33.214C33.796 33.106 33.822 32.756 34.322 31.666C34.518 31.238 34.966 30.518 35.746 29.828C35.836 30.112 35.892 30.382 35.89 30.636C35.88 32.324 34.676 32.954 33.948 33.214Z" fill="#3C3C3C"/>
</g>
<defs>
<clipPath id="clip0">
<rect width="48" height="48" fill="white"/>
</clipPath>
</defs>
</svg>
