<svg width="48" height="48" viewBox="0 0 48 48" fill="none" xmlns="http://www.w3.org/2000/svg">
<g clip-path="url(#clip0)">
<path fill-rule="evenodd" clip-rule="evenodd" d="M31.1958 17.4278L36.4064 8.37507L36.4786 1.35345C36.4313 1.31088 36.4443 1.3226 36.397 1.28003C28.1776 8.54095 18.4618 17.2422 10.2424 24.503C10.2545 24.5306 10.2517 25.9272 10.234 28.6928L19.9493 27.0466C16.5944 32.7502 13.0784 38.9837 13.0784 38.9837L13.1 46.08L37.1087 23.6495L37.0349 16.7491C37.0349 16.7491 32.7055 17.2447 31.1958 17.4278Z" stroke="#3C3C3C" stroke-width="2"/>
<path fill-rule="evenodd" clip-rule="evenodd" d="M26.3475 18.3611C29.6444 17.9612 36.3888 17.0883 36.3888 17.1434C36.3888 17.1979 20.9467 31.6523 13.2729 38.8623C13.2306 38.8261 13.2426 38.8364 13.2005 38.8C16.5491 33.1092 19.8977 27.4184 23.2464 21.7276C23.2144 21.6777 23.2101 21.6711 23.1782 21.6212C19.3433 22.226 15.5085 22.8307 11.6737 23.4355C19.8431 16.1117 36.0146 2.02673 36.0146 2.02673C36.031 2.0706 29.433 13.0193 26.263 18.2219C26.3024 18.2867 26.3081 18.2962 26.3475 18.3611Z" fill="#3C3C3C" stroke="#3C3C3C" stroke-width="2"/>
</g>
<defs>
<clipPath id="clip0">
<rect width="48" height="48" fill="white"/>
</clipPath>
</defs>
</svg>
