<svg width="48" height="48" viewBox="0 0 48 48" fill="none" xmlns="http://www.w3.org/2000/svg">
<path fill-rule="evenodd" clip-rule="evenodd" d="M24 9.20001C17.6016 9.20001 13.6016 12.4573 12 18.972C14.401 15.716 17.2005 14.4947 20.3984 15.308C22.2266 15.772 23.5234 17.12 24.9766 18.612C27.3203 21.044 30.0547 23.856 36 23.856C42.3984 23.856 46.3984 20.5987 48 14.084C45.6016 17.3427 42.8021 18.564 39.6016 17.748C37.7734 17.284 36.4766 15.936 35.0234 14.444C32.6719 12 29.9492 9.20001 24 9.20001ZM12 23.856C5.60156 23.856 1.60156 27.1133 0 33.628C2.40365 30.372 5.20312 29.1507 8.39844 29.964C10.2266 30.428 11.5234 31.776 12.9766 33.272C15.3203 35.7 18.0547 38.516 24 38.516C30.3984 38.516 34.3984 35.2587 36 28.744C33.6016 32 30.8021 33.2187 27.6016 32.4C25.7734 31.936 24.4766 30.588 23.0234 29.096C20.6797 26.664 17.9453 23.848 12 23.848V23.856Z" fill="#3C3C3C"/>
</svg>
